<svg xmlns="http://www.w3.org/2000/svg" viewBox="0 0 204 228.44"><defs><style>.cls-1{isolation:isolate;}.cls-2{fill:#d3755d;}.cls-3{fill:#2b2b2b;}.cls-4{fill:#ffb883;}.cls-5{fill:#ed9d66;}.cls-6{fill:#ffea6c;mix-blend-mode:soft-light;}.cls-7{fill:#262626;}.cls-8{fill:#444;}.cls-9{fill:#eae9e5;}.cls-10{fill:#ddd3d3;}.cls-11{fill:#d3c4c2;}.cls-12{fill:#686530;}.cls-13{fill:#350022;}</style></defs><title>labo-r3</title><g class="cls-1"><g id="Слой_2" data-name="Слой 2"><g id="レイヤー_1" data-name="レイヤー 1"><polygon class="cls-2" points="102 113.29 0 113.29 0 169.24 102 228.44 102 228.44 102 113.29 102 113.29"/><polygon class="cls-3" points="204 113.29 102 113.29 102 228.44 204 169.24 204 113.29"/><polygon class="cls-4" points="204 113.29 102 54.09 0 113.29 102 172.49 204 113.29"/><polygon class="cls-5" points="112.39 60.12 10.39 119.32 11.9 120.2 113.9 61 112.39 60.12"/><polygon class="cls-5" points="132.32 71.69 30.32 130.89 31.83 131.76 133.83 72.56 132.32 71.69"/><polygon class="cls-5" points="152.25 83.25 50.25 142.45 51.75 143.33 153.75 84.13 152.25 83.25"/><polygon class="cls-5" points="172.17 94.82 70.17 154.02 71.68 154.9 173.68 95.69 172.17 94.82"/><polygon class="cls-5" points="192.1 106.38 90.1 165.58 91.61 166.46 193.61 107.26 192.1 106.38"/><ellipse class="cls-6" cx="102" cy="113.29" rx="60.67" ry="34.85"/><path class="cls-3" d="M165.19,51.63c6.8,9.36,5.46,19.82-2.16,28a17,17,0,0,1,2.08,2.35C171,90,166,99.5,154,103.46l-52.2,15.81L53.48,52.79l3.85-1.17L105.69,37C128.09,30.55,154.58,37,165.19,51.63Z"/><polygon class="cls-7" points="33.34 58.89 81.64 125.37 101.78 119.27 53.48 52.79 33.34 58.89"/><rect class="cls-7" x="33.32" y="36.72" width="20.16" height="22.19"/><polygon class="cls-8" points="33.32 36.72 81.63 103.21 101.77 97.11 53.47 30.63 33.32 36.72"/><polygon class="cls-3" points="101.78 119.27 101.77 97.11 81.63 103.21 81.64 125.37 101.78 119.27"/><polygon class="cls-9" points="98.94 93.2 57.91 36.72 37.77 42.82 78.8 99.3 98.94 93.2"/><polygon class="cls-9" points="57.91 36.72 37.77 42.82 37.77 48.65 78.8 105.13 78.8 99.3 98.94 93.2 57.91 36.72"/><polygon class="cls-10" points="99.07 93.2 58.03 36.72 51.9 38.58 92.93 95.06 99.07 93.2"/><polygon class="cls-11" points="78.8 99.3 37.77 42.82 37.77 48.65 78.8 105.13 78.8 99.3"/><rect class="cls-3" x="140.6" y="29.66" width="29" height="33.07"/><rect class="cls-3" x="138.56" y="54.14" width="29" height="35.25"/><path class="cls-12" d="M165.19,17.13c6.8,9.36,5.46,19.82-2.16,28a17,17,0,0,1,2.08,2.35C171,55.49,166,65,154,69l-52.2,15.81L53.48,18.29l3.85-1.17L105.69,2.49C128.09-3.95,154.58,2.52,165.19,17.13Z"/><polygon class="cls-7" points="53.47 30.63 101.77 97.11 101.77 84.75 53.47 18.27 53.47 30.63"/><polygon class="cls-13" points="98.94 91.61 57.91 35.45 57.91 36.76 98.94 93.24 98.94 91.61"/><polygon class="cls-3" points="91.77 81.88 76.95 86.37 76.95 86.37 76.95 87.84 80.7 93 80.7 93 95.52 88.51 95.52 87.04 91.77 81.88"/><polygon class="cls-3" points="88.92 79.45 88.92 77.98 85.18 72.82 70.36 77.31 70.36 77.31 70.36 78.78 74.11 83.94 74.11 83.94 88.92 79.45"/><polygon class="cls-3" points="82.33 70.39 82.33 68.92 78.58 63.76 63.76 68.25 63.76 68.25 63.76 69.72 67.51 74.87 67.51 74.87 82.33 70.39"/><polygon class="cls-3" points="71.91 54.57 68.16 49.41 53.34 53.9 53.34 53.9 53.34 55.37 57.09 60.52 71.91 56.04 71.91 54.57"/><polygon class="cls-3" points="65.31 45.51 61.56 40.35 46.75 44.84 46.75 44.84 46.75 46.3 50.49 51.46 65.31 46.97 65.31 45.51"/><polygon class="cls-7" points="85.18 72.82 70.36 77.31 74.11 82.47 88.92 77.98 85.18 72.82"/><polygon class="cls-3" points="74.11 82.47 70.36 77.31 70.36 78.78 74.11 83.94 74.11 82.47"/><polygon class="cls-8" points="74.11 82.47 74.11 83.94 88.92 79.45 88.92 77.98 74.11 82.47"/><polygon class="cls-7" points="91.77 81.88 76.95 86.37 80.7 91.53 95.52 87.04 91.77 81.88"/><polygon class="cls-3" points="80.7 91.53 76.95 86.37 76.95 87.84 80.7 93 80.7 91.53"/><polygon class="cls-8" points="80.7 91.53 80.7 93 95.52 88.51 95.52 87.04 80.7 91.53"/><polygon class="cls-7" points="78.58 63.76 63.76 68.25 67.51 73.41 82.33 68.92 78.58 63.76"/><polygon class="cls-3" points="67.51 73.41 63.76 68.25 63.76 69.72 67.51 74.87 67.51 73.41"/><polygon class="cls-8" points="67.51 73.41 67.51 74.87 82.33 70.39 82.33 68.92 67.51 73.41"/><polygon class="cls-7" points="68.16 49.41 53.34 53.9 57.09 59.06 71.91 54.57 68.16 49.41"/><polygon class="cls-3" points="57.09 59.06 53.34 53.9 53.34 55.37 57.09 60.52 57.09 59.06"/><polygon class="cls-8" points="57.09 59.06 57.09 60.52 71.91 56.04 71.91 54.57 57.09 59.06"/><polygon class="cls-7" points="61.56 40.35 46.75 44.84 50.49 49.99 65.31 45.51 61.56 40.35"/><polygon class="cls-3" points="50.49 49.99 46.75 44.84 46.75 46.3 50.49 51.46 50.49 49.99"/><polygon class="cls-8" points="50.49 49.99 50.49 51.46 65.31 46.97 65.31 45.51 50.49 49.99"/></g></g></g></svg>