<svg xmlns="http://www.w3.org/2000/svg" viewBox="0 0 204 281.24"><defs><style>.cls-1{fill:#7f59d1;}.cls-2{fill:#2b2b2b;}.cls-3{fill:#ef8eba;}.cls-4{fill:#ce76ce;}.cls-5{fill:#efcf4b;}.cls-6{fill:#e5a345;}.cls-7{fill:#c40a2a;}.cls-8{fill:#dd193a;}.cls-9{fill:#964b12;}.cls-10{fill:#ff8622;}.cls-11{fill:none;}.cls-12{fill:#ba0024;}.cls-13{fill:#20adce;}</style></defs><title>labo-r4</title><g id="Слой_2" data-name="Слой 2"><g id="レイヤー_1" data-name="レイヤー 1"><polygon class="cls-1" points="102 166.09 0 166.09 0 222.04 102 281.24 102 281.24 102 166.09 102 166.09"/><polygon class="cls-2" points="204 166.09 102 166.09 102 281.24 204 222.04 204 166.09"/><polygon class="cls-3" points="204 166.09 102 106.89 0 166.09 102 225.29 204 166.09"/><polygon class="cls-4" points="177.53 166.09 102 122.25 26.48 166.09 102 209.92 177.53 166.09"/><polygon class="cls-5" points="102 126.74 36.15 126.74 36.15 166.09 102 204.31 102 204.31 102 126.74 102 126.74"/><polygon class="cls-6" points="102 118.94 36.15 118.94 36.15 133.51 102 171.73 102 167.6 102 118.94 102 118.94"/><polygon class="cls-2" points="167.85 126.74 102 126.74 102 204.31 167.85 166.09 167.85 126.74"/><polygon class="cls-7" points="134.93 32.87 90.08 77.49 179.77 132.77 179.77 132.77 134.93 32.87"/><polygon class="cls-8" points="137.84 21.63 66.16 63.24 17.34 115.33 114.97 171.99 114.97 171.99 114.97 171.99 186.66 130.39 186.66 130.39 137.84 21.63"/><path class="cls-2" d="M81.71,167.56h0c0-7-5.66-15.93-12.64-20s-12.63-1.67-12.63,5.31h0v25l25.27,14.67v-25Z"/><polygon class="cls-8" points="114.97 171.99 186.66 130.39 186.66 130.39 137.84 21.63 66.16 63.24 114.97 171.99"/><polygon class="cls-9" points="102 15.35 83.42 15.35 83.42 57.87 102 68.66 102 68.66 102 15.35 102 15.35"/><polygon class="cls-2" points="120.58 15.35 102 15.35 102 68.66 120.58 57.87 120.58 15.35"/><polygon class="cls-10" points="120.58 15.35 102 4.56 83.42 15.35 102 26.13 120.58 15.35"/><polygon class="cls-2" points="115.92 15.35 102 7.27 88.08 15.35 102 23.42 115.92 15.35"/><line class="cls-11" x1="92.71" x2="92.71" y2="49.58"/><polygon class="cls-12" points="66.16 63.24 17.34 115.33 114.97 171.99 114.97 171.99 66.16 63.24"/><polygon class="cls-8" points="66.67 62.99 115.48 171.75 141.44 156.68 92.62 47.93 66.67 62.99"/><circle class="cls-13" cx="64.11" cy="164.39" r="2.81"/><circle class="cls-13" cx="73.46" cy="169.79" r="2.81"/></g></g></svg>