<svg xmlns="http://www.w3.org/2000/svg" viewBox="0 0 204 282.95"><defs><style>.cls-1{isolation:isolate;}.cls-2{fill:#008daa;}.cls-3{fill:#2b2b2b;}.cls-4{fill:#1abdc1;}.cls-5{fill:#1595bc;}.cls-6{fill:#d3d3d3;}.cls-7{fill:#e2d559;}.cls-8{fill:#e0aa5a;}.cls-9{fill:#1b9dbf;opacity:0.3;mix-blend-mode:multiply;}.cls-10{fill:#b75c5c;}.cls-11{fill:#dd7c7c;}.cls-12{fill:#0c5e8c;}.cls-13{fill:#ede7e6;}.cls-14{fill:#262b84;}</style></defs><title>labo-r1</title><g class="cls-1"><g id="Слой_2" data-name="Слой 2"><g id="レイヤー_1" data-name="レイヤー 1"><polygon class="cls-2" points="102 167.8 0 167.8 0 223.75 102 282.95 102 282.95 102 167.8 102 167.8"/><polygon class="cls-3" points="204 167.8 102 167.8 102 282.95 204 223.75 204 167.8"/><polygon class="cls-4" points="204 167.8 102 108.6 0 167.8 102 227 204 167.8"/><path class="cls-5" d="M151,179.13c-14.09-11.33-31.74-4.82-60.19-17.68-19.19-8.68-22.08-20.1-29.29-29.33l-1.94,1.13c8.78,9.58,10.41,22.22,31.23,31.63,28.45,12.87,46.1,6.35,60.19,17.68,2.59,2.09,5.31,6.43,8,11.41l1.37-.8C157.2,187.13,154,181.58,151,179.13Z"/><path class="cls-6" d="M156,176.48C142.83,165.91,126.37,172,99.82,160c-21.16-9.56-21.08-22.7-31.51-31.82l-6.84,4c7.21,9.23,10.1,20.65,29.29,29.33,28.45,12.86,46.1,6.35,60.19,17.68,3,2.45,6.25,8,9.34,14l4.81-2.79C162.09,184.43,159,178.87,156,176.48Z"/><path class="cls-7" d="M102,108.6,68.31,128.16c10.43,9.12,10.35,22.26,31.51,31.82,26.55,12,43,5.93,56.16,16.5,3,2.39,6.11,8,9.12,13.9L204,167.8Z"/><ellipse class="cls-8" cx="137.31" cy="161.85" rx="1.89" ry="1.45"/><ellipse class="cls-8" cx="72.31" cy="127.85" rx="1.89" ry="1.45"/><ellipse class="cls-8" cx="92.64" cy="115.68" rx="1.89" ry="1.45"/><ellipse class="cls-8" cx="83.64" cy="135.68" rx="1.89" ry="1.45"/><ellipse class="cls-8" cx="91.98" cy="126.85" rx="1.89" ry="1.45"/><ellipse class="cls-8" cx="113.31" cy="137.68" rx="1.89" ry="1.45"/><ellipse class="cls-8" cx="177.14" cy="156.18" rx="1.89" ry="1.45"/><ellipse class="cls-8" cx="108.31" cy="148.68" rx="1.89" ry="1.45"/><ellipse class="cls-8" cx="93.7" cy="148.8" rx="1.89" ry="1.45"/><ellipse class="cls-8" cx="137.64" cy="147.18" rx="1.89" ry="1.45"/><ellipse class="cls-8" cx="151.48" cy="156.01" rx="1.89" ry="1.45"/><ellipse class="cls-8" cx="158.48" cy="164.85" rx="1.89" ry="1.45"/><ellipse class="cls-8" cx="125.31" cy="155.85" rx="1.89" ry="1.45"/><ellipse class="cls-8" cx="115.64" cy="127.01" rx="1.89" ry="1.45"/><ellipse class="cls-8" cx="133.31" cy="135.68" rx="1.89" ry="1.45"/><ellipse class="cls-8" cx="162.64" cy="151.18" rx="1.89" ry="1.45"/><ellipse class="cls-8" cx="172.48" cy="165.23" rx="1.89" ry="1.45"/><ellipse class="cls-8" cx="187.31" cy="167.51" rx="1.89" ry="1.45"/><ellipse class="cls-8" cx="173.14" cy="177.01" rx="1.89" ry="1.45"/><ellipse class="cls-9" cx="98.43" cy="171.83" rx="38.91" ry="9.18"/><path class="cls-3" d="M88,55.94V48.36l9.68-4.61-16.85-8v20.2a21.07,21.07,0,0,0,21,21,20.81,20.81,0,0,0,4.76-.57l-4.78-6.6A13.89,13.89,0,0,1,88,55.94Z"/><polygon class="cls-10" points="112.82 67.22 105.22 80.39 97.62 67.22 112.82 67.22"/><path class="cls-11" d="M137.91,127.24c7.12.33,11.68,7.21,10.92,11.58l-6.61,36.31-6.81-5.56Z"/><path class="cls-12" d="M137.66,106.87c-2.79-19-10.18-31-21.76-36.32l-10.67,9L95.87,68c-13.71,2.54-25.69,14-31.1,29.68l-1.14,4.21c-.59,2.89-3.22,5.56-8,4.79l-8.18,55.93c7.75,1.92,12.75-.91,13.91-5.06,0,0-.15,3.86.35,13.52,5,4.11,22.15,8.44,38.57,8.44,19.14,0,34.9-4,37-9.2C139,162.39,141,129.55,137.66,106.87Z"/><circle class="cls-13" cx="86.25" cy="98.75" r="9.63"/><circle class="cls-3" cx="86.25" cy="98.75" r="5.27"/><path class="cls-11" d="M83.51,146.85a15,15,0,0,1,30.09-.71c0,.27,0,.54,0,.81L84.21,151A15,15,0,0,1,83.51,146.85Z"/><path class="cls-11" d="M119.72,69.7a3.23,3.23,0,0,0-5.57-2.22l-7.87,8.25L98.09,65.07A3.23,3.23,0,0,0,93,69l12.78,16.64,13.08-13.71A3.24,3.24,0,0,0,119.72,69.7Z"/><path class="cls-14" d="M96.93,132.06c-15.85-.81-26.63-5.43-26.7-11.59,4.32,3.67,14.5,6.24,27.05,7s24.33-.51,30.57-3.15C126,129.69,112.75,132.88,96.93,132.06Z"/><path class="cls-3" d="M119.54,0A10.19,10.19,0,0,0,116,19.74V56.52A13.9,13.9,0,0,1,102.08,70.4h0l4.78,6.6a21.08,21.08,0,0,0,16.28-20.48V19.74A10.19,10.19,0,0,0,119.54,0Zm0,16a5.77,5.77,0,1,1,5.77-5.77A5.78,5.78,0,0,1,119.54,16Z"/><path class="cls-3" d="M136,108.32c-5.38-12.74-10.34,58.92-10.68,65.21,0,.15-.07,2-.12,3.27a33.45,33.45,0,0,0,8.85-3.35c.17-1.1.38-2.34.4-2.42C137.36,156,139,115.53,136,108.32Z"/></g></g></g></svg>