<svg xmlns="http://www.w3.org/2000/svg" viewBox="0 0 204 322.22"><defs><style>.cls-1{fill:#009289;}.cls-2{fill:#2b2b2b;}.cls-3{fill:#1bce8d;}.cls-4{fill:#27ad7d;}.cls-5{fill:#b1e9f2;}.cls-6{fill:#a4ecf4;}.cls-7{fill:#a0c4d8;}.cls-8{fill:#86a9c4;}.cls-9{fill:#ef6a41;}.cls-10{fill:#f46640;}.cls-11{fill:#f9882b;}.cls-12{fill:#e54c29;}.cls-13{fill:#37525e;}.cls-14{fill:#99bbd1;}.cls-15{fill:#9cd2d8;}.cls-16{fill:#ef4625;}.cls-17{fill:#d6401d;}</style></defs><title>labo-r5</title><g id="Слой_2" data-name="Слой 2"><g id="レイヤー_1" data-name="レイヤー 1"><polygon class="cls-1" points="102 207.07 0 207.07 0 263.02 102 322.22 102 322.22 102 207.07 102 207.07"/><polygon class="cls-2" points="204 207.07 102 207.07 102 322.22 204 263.02 204 207.07"/><polygon class="cls-3" points="204 207.07 102 147.87 0 207.07 102 266.27 204 207.07"/><polygon class="cls-4" points="41.13 183.2 93.34 152.89 103.56 171.31 103.56 185.51 41.13 183.2"/><polygon class="cls-4" points="92.01 208.91 131.22 231.66 181.51 202.47 142.3 179.71 92.01 208.91"/><rect class="cls-5" x="1.85" y="135.24" width="120" height="9.25" transform="translate(46.25 -12.27) rotate(18)"/><rect class="cls-6" x="2.41" y="128.48" width="121.73" height="13.97" transform="translate(44.99 -12.93) rotate(18.01)"/><polygon class="cls-7" points="3.79 131.47 1.83 127.63 4.18 120.39 6.14 124.23 3.79 131.47"/><rect class="cls-8" x="2.13" y="141.92" width="115.63" height="7.61" transform="translate(47.99 -11.39) rotate(18.01)"/><polygon class="cls-2" points="113.75 167.22 117.6 165.26 119.95 158.02 116.11 159.98 113.75 167.22"/><rect class="cls-9" x="14" y="84.57" width="114.68" height="52.17" transform="translate(37.69 -16.63) rotate(18)"/><rect class="cls-10" x="42.84" y="56.35" width="55.87" height="112.12" transform="translate(-58 144.96) rotate(-71.99)"/><polygon class="cls-11" points="6.87 117.79 8.83 121.64 26.09 68.5 23.19 67.56 6.87 117.79"/><polygon class="cls-12" points="130.59 116.13 22.09 80.85 20.28 76.52 21.62 72.38 133.04 108.61 130.59 116.13"/><polygon class="cls-2" points="119.3 154.35 115.46 156.31 132.72 103.17 135.63 104.11 119.3 154.35"/><rect class="cls-5" x="22.54" y="69.52" width="120" height="13.37" transform="translate(27.59 -21.78) rotate(18)"/><rect class="cls-6" x="23.14" y="62.12" width="121.73" height="19.11" transform="translate(26.28 -22.46) rotate(18.01)"/><polygon class="cls-7" points="22.18 74.86 20.22 71.01 25.25 55.53 27.21 59.38 22.18 74.86"/><rect class="cls-8" x="21.86" y="76.85" width="115.63" height="16.28" transform="translate(30.18 -20.47) rotate(18.01)"/><polygon class="cls-2" points="132.14 110.61 135.99 108.65 141.03 93.17 137.18 95.13 132.14 110.61"/><circle class="cls-13" cx="45.28" cy="104.24" r="14.5"/><path class="cls-2" d="M44.27,89.77a14.51,14.51,0,0,0-12.81,10.1L58.35,98A14.5,14.5,0,0,0,44.27,89.77Z"/><path class="cls-5" d="M37.24,97.49a10.5,10.5,0,0,0,1.29,14.79L52,96.2A10.5,10.5,0,0,0,37.24,97.49Z"/><path class="cls-14" d="M52,96.2l-13.5,16.08A10.5,10.5,0,1,0,52,96.2Z"/><circle class="cls-15" cx="45.28" cy="104.24" r="7.4"/><circle class="cls-13" cx="96.2" cy="120.78" r="14.5"/><path class="cls-2" d="M95.19,106.32a14.49,14.49,0,0,0-12.8,10.09l26.88-1.88A14.48,14.48,0,0,0,95.19,106.32Z"/><path class="cls-5" d="M88.16,114a10.51,10.51,0,0,0,1.29,14.8L103,112.74A10.5,10.5,0,0,0,88.16,114Z"/><path class="cls-14" d="M103,112.74l-13.5,16.09A10.5,10.5,0,0,0,103,112.74Z"/><circle class="cls-15" cx="96.2" cy="120.78" r="7.4"/><path class="cls-7" d="M98.84,73.52h0a3.18,3.18,0,0,0,.13-1l2.47-19.31L80.75,46.5,71.4,63.58a2.94,2.94,0,0,0-.47.87h0c-1.11,3.4,4.25,8.18,11.95,10.69s14.86,1.78,16-1.62Z"/><path class="cls-6" d="M85.56,48.07,75.36,71.5a27.27,27.27,0,0,0,5.53,2.91l8.3-25.16Z"/><ellipse class="cls-6" cx="91.1" cy="49.86" rx="4.8" ry="10.89" transform="translate(15.51 121.08) rotate(-71.99)"/><path class="cls-7" d="M98.49,52.27h0a2,2,0,0,0,.07-.43l7.49-48L83.91,47.07a1.27,1.27,0,0,0-.2.38h0c-.58,1.8,2.26,4.33,6.34,5.66s7.86,1,8.45-.85Z"/><path class="cls-6" d="M86.14,51.26a15.82,15.82,0,0,0,3.71,1.8l14-42.56Z"/><circle class="cls-7" cx="103.52" cy="11.63" r="11.62"/><circle class="cls-14" cx="104.6" cy="14.78" r="5.8"/><circle class="cls-6" cx="100.27" cy="5.96" r="2.93"/><polygon class="cls-2" points="153.57 145.74 168.5 133.67 168.5 154.4 153.57 145.74"/><ellipse class="cls-2" cx="168.5" cy="132.42" rx="8.3" ry="6.49" transform="translate(26.01 292.49) rotate(-86.49)"/><polygon class="cls-16" points="151.77 144.29 166.7 132.22 166.7 152.96 151.77 144.29"/><ellipse class="cls-16" cx="166.7" cy="130.97" rx="8.3" ry="6.49" transform="translate(25.76 289.34) rotate(-86.49)"/><polygon class="cls-17" points="181.5 157.11 114.74 156.68 114.74 163.69 92 163.55 92 189.58 92.22 189.58 131.21 212.21 168.5 182.56 181.5 157.11"/><path class="cls-2" d="M181.5,157.11l-50.29-.43v55.53l8.48-4.92,3.94,8.49c1.1,2.37,5,1.95,5.41-.59l2.57-14.83,1.71-1,4,8.57c1.1,2.37,5,1.95,5.41-.59l2.59-14.93,1.65-1,4,8.65c1.1,2.37,5,1.95,5.42-.59l2.61-15L181.5,183Z"/><polygon class="cls-10" points="92 163.55 118.89 179.15 131.21 186.3 181.5 157.11 142.29 134.35 92 163.55"/></g></g></svg>