<svg xmlns="http://www.w3.org/2000/svg" viewBox="0 0 204.09 279.6"><defs><style>.cls-1{fill:#386c1c;}.cls-2{fill:#2b2b2b;}.cls-3{fill:#8c8c8c;}.cls-4{fill:#5fa838;}.cls-5{fill:#e2e2e2;}.cls-6{fill:#dd553a;}.cls-7{fill:#7ca9bc;}.cls-8{fill:#e5d96c;}.cls-9{fill:#ffd833;}.cls-10{fill:#d80d42;}.cls-11{fill:#ef2b3e;}.cls-12{fill:#b0d4db;}</style></defs><title>labo-r2</title><g id="Слой_2" data-name="Слой 2"><g id="レイヤー_1" data-name="レイヤー 1"><polygon class="cls-1" points="102.05 164.45 0.05 164.45 0.05 220.4 102.05 279.61 102.05 279.6 102.05 164.45 102.05 164.45"/><polygon class="cls-2" points="204.05 164.45 102.05 164.45 102.05 279.6 204.05 220.4 204.05 164.45"/><polygon class="cls-3" points="204.05 164.45 102.05 105.25 0.05 164.45 102.05 223.66 204.05 164.45"/><polygon class="cls-4" points="145.42 164.45 102.05 139.27 58.68 164.45 102.05 189.64 145.42 164.45"/><polygon class="cls-5" points="97.99 221.3 102.04 223.66 204.09 164.44 200.04 162.09 97.99 221.3"/><polygon class="cls-6" points="108.05 220.17 103.99 217.82 97.99 221.3 102.04 223.66 108.05 220.17"/><polygon class="cls-5" points="114.05 216.69 109.99 214.34 103.99 217.82 108.05 220.17 114.05 216.69"/><polygon class="cls-6" points="120.05 213.21 115.99 210.85 109.99 214.34 114.05 216.69 120.05 213.21"/><polygon class="cls-5" points="126.05 209.72 122 207.37 115.99 210.85 120.05 213.21 126.05 209.72"/><polygon class="cls-6" points="132.06 206.24 128 203.89 122 207.37 126.06 209.72 132.06 206.24"/><polygon class="cls-5" points="138.06 202.76 134 200.4 128 203.89 132.06 206.24 138.06 202.76"/><polygon class="cls-6" points="144.06 199.27 140.01 196.92 134 200.4 138.06 202.76 144.06 199.27"/><polygon class="cls-5" points="150.07 195.79 146.01 193.44 140.01 196.92 144.06 199.27 150.07 195.79"/><polygon class="cls-6" points="156.07 192.31 152.01 189.95 146.01 193.44 150.07 195.79 156.07 192.31"/><polygon class="cls-5" points="162.07 188.82 158.01 186.47 152.01 189.95 156.07 192.31 162.07 188.82"/><polygon class="cls-6" points="168.07 185.34 164.02 182.99 158.01 186.47 162.07 188.82 168.07 185.34"/><polygon class="cls-5" points="174.08 181.86 170.02 179.5 164.02 182.99 168.07 185.34 174.08 181.86"/><polygon class="cls-6" points="180.08 178.38 176.02 176.02 170.02 179.5 174.08 181.86 180.08 178.38"/><polygon class="cls-5" points="186.08 174.89 182.03 172.54 176.02 176.02 180.08 178.38 186.08 174.89"/><polygon class="cls-6" points="192.09 171.41 188.03 169.06 182.03 172.54 186.09 174.89 192.09 171.41"/><polygon class="cls-5" points="198.09 167.93 194.03 165.57 188.03 169.06 192.09 171.41 198.09 167.93"/><polygon class="cls-6" points="204.09 164.44 200.04 162.09 194.03 165.57 198.09 167.93 204.09 164.44"/><polygon class="cls-5" points="0 164.44 4.06 162.09 106.11 221.3 102.05 223.66 0 164.44"/><polygon class="cls-6" points="10.06 165.57 6 167.93 0 164.44 4.06 162.09 10.06 165.57"/><polygon class="cls-5" points="16.06 169.06 12.01 171.41 6 167.93 10.06 165.57 16.06 169.06"/><polygon class="cls-6" points="22.07 172.54 18.01 174.89 12.01 171.41 16.06 169.06 22.07 172.54"/><polygon class="cls-5" points="28.07 176.02 24.01 178.38 18.01 174.89 22.07 172.54 28.07 176.02"/><polygon class="cls-6" points="34.07 179.5 30.02 181.86 24.01 178.38 28.07 176.02 34.07 179.5"/><polygon class="cls-5" points="40.08 182.99 36.02 185.34 30.02 181.86 34.07 179.5 40.08 182.99"/><polygon class="cls-6" points="46.08 186.47 42.02 188.82 36.02 185.34 40.08 182.99 46.08 186.47"/><polygon class="cls-5" points="52.08 189.95 48.02 192.31 42.02 188.82 46.08 186.47 52.08 189.95"/><polygon class="cls-6" points="58.08 193.44 54.03 195.79 48.02 192.31 52.08 189.95 58.08 193.44"/><polygon class="cls-5" points="64.09 196.92 60.03 199.27 54.03 195.79 58.08 193.44 64.09 196.92"/><polygon class="cls-6" points="70.09 200.4 66.03 202.76 60.03 199.27 64.09 196.92 70.09 200.4"/><polygon class="cls-5" points="76.09 203.89 72.03 206.24 66.03 202.76 70.09 200.4 76.09 203.89"/><polygon class="cls-6" points="82.09 207.37 78.04 209.72 72.03 206.24 76.09 203.89 82.09 207.37"/><polygon class="cls-5" points="88.1 210.85 84.04 213.21 78.04 209.72 82.09 207.37 88.1 210.85"/><polygon class="cls-6" points="94.1 214.34 90.04 216.69 84.04 213.21 88.1 210.85 94.1 214.34"/><polygon class="cls-5" points="100.1 217.82 96.05 220.17 90.04 216.69 94.1 214.34 100.1 217.82"/><polygon class="cls-6" points="106.11 221.3 102.05 223.66 96.05 220.17 100.1 217.82 106.11 221.3"/><polygon class="cls-5" points="106.11 107.61 102.05 105.25 0 164.47 4.06 166.82 106.11 107.61"/><polygon class="cls-6" points="96.05 108.74 100.1 111.09 106.11 107.61 102.05 105.25 96.05 108.74"/><polygon class="cls-5" points="90.04 112.22 94.1 114.57 100.1 111.09 96.05 108.74 90.04 112.22"/><polygon class="cls-6" points="84.04 115.7 88.1 118.06 94.1 114.57 90.04 112.22 84.04 115.7"/><polygon class="cls-5" points="78.04 119.19 82.1 121.54 88.1 118.06 84.04 115.7 78.04 119.19"/><polygon class="cls-6" points="72.03 122.67 76.09 125.02 82.09 121.54 78.04 119.19 72.03 122.67"/><polygon class="cls-5" points="66.03 126.15 70.09 128.51 76.09 125.02 72.03 122.67 66.03 126.15"/><polygon class="cls-6" points="60.03 129.63 64.09 131.99 70.09 128.51 66.03 126.15 60.03 129.63"/><polygon class="cls-5" points="54.03 133.12 58.08 135.47 64.09 131.99 60.03 129.63 54.03 133.12"/><polygon class="cls-6" points="48.02 136.6 52.08 138.96 58.08 135.47 54.03 133.12 48.02 136.6"/><polygon class="cls-5" points="42.02 140.08 46.08 142.44 52.08 138.96 48.02 136.6 42.02 140.08"/><polygon class="cls-6" points="36.02 143.57 40.08 145.92 46.08 142.44 42.02 140.08 36.02 143.57"/><polygon class="cls-5" points="30.02 147.05 34.07 149.4 40.08 145.92 36.02 143.57 30.02 147.05"/><polygon class="cls-6" points="24.01 150.53 28.07 152.89 34.07 149.4 30.02 147.05 24.01 150.53"/><polygon class="cls-5" points="18.01 154.01 22.07 156.37 28.07 152.89 24.01 150.53 18.01 154.01"/><polygon class="cls-6" points="12.01 157.5 16.06 159.85 22.07 156.37 18.01 154.01 12.01 157.5"/><polygon class="cls-5" points="6 160.98 10.06 163.34 16.06 159.85 12.01 157.5 6 160.98"/><polygon class="cls-6" points="0 164.47 4.06 166.82 10.06 163.34 6 160.98 0 164.47"/><polygon class="cls-5" points="204.09 164.47 200.04 166.82 97.99 107.61 102.04 105.25 204.09 164.47"/><polygon class="cls-6" points="194.03 163.34 198.09 160.98 204.09 164.47 200.04 166.82 194.03 163.34"/><polygon class="cls-5" points="188.03 159.85 192.09 157.5 198.09 160.98 194.03 163.34 188.03 159.85"/><polygon class="cls-6" points="182.03 156.37 186.09 154.01 192.09 157.5 188.03 159.85 182.03 156.37"/><polygon class="cls-5" points="176.03 152.89 180.08 150.53 186.09 154.01 182.03 156.37 176.03 152.89"/><polygon class="cls-6" points="170.02 149.4 174.08 147.05 180.08 150.53 176.02 152.89 170.02 149.4"/><polygon class="cls-5" points="164.02 145.92 168.07 143.57 174.08 147.05 170.02 149.4 164.02 145.92"/><polygon class="cls-6" points="158.01 142.44 162.07 140.08 168.07 143.57 164.02 145.92 158.01 142.44"/><polygon class="cls-5" points="152.01 138.96 156.07 136.6 162.07 140.08 158.01 142.44 152.01 138.96"/><polygon class="cls-6" points="146.01 135.47 150.07 133.12 156.07 136.6 152.01 138.96 146.01 135.47"/><polygon class="cls-5" points="140.01 131.99 144.06 129.63 150.07 133.12 146.01 135.47 140.01 131.99"/><polygon class="cls-6" points="134 128.51 138.06 126.15 144.06 129.63 140.01 131.99 134 128.51"/><polygon class="cls-5" points="128 125.02 132.06 122.67 138.06 126.15 134 128.51 128 125.02"/><polygon class="cls-6" points="122 121.54 126.06 119.19 132.06 122.67 128 125.02 122 121.54"/><polygon class="cls-5" points="116 118.06 120.05 115.7 126.06 119.19 122 121.54 116 118.06"/><polygon class="cls-6" points="109.99 114.57 114.05 112.22 120.05 115.7 115.99 118.06 109.99 114.57"/><polygon class="cls-5" points="103.99 111.09 108.05 108.74 114.05 112.22 109.99 114.57 103.99 111.09"/><polygon class="cls-6" points="97.99 107.61 102.04 105.25 108.05 108.74 103.99 111.09 97.99 107.61"/><polygon class="cls-6" points="96.05 140.05 100.1 142.41 106.11 138.92 102.05 136.57 96.05 140.05"/><polygon class="cls-5" points="90.04 143.53 94.1 145.89 100.1 142.41 96.05 140.05 90.04 143.53"/><polygon class="cls-6" points="84.04 147.02 88.1 149.37 94.1 145.89 90.04 143.53 84.04 147.02"/><polygon class="cls-5" points="78.04 150.5 82.1 152.86 88.1 149.37 84.04 147.02 78.04 150.5"/><polygon class="cls-6" points="72.03 153.98 76.09 156.34 82.09 152.86 78.04 150.5 72.03 153.98"/><polygon class="cls-5" points="66.03 157.47 70.09 159.82 76.09 156.34 72.03 153.98 66.03 157.47"/><polygon class="cls-6" points="60.03 160.95 64.09 163.31 70.09 159.82 66.03 157.47 60.03 160.95"/><polygon class="cls-5" points="54.03 164.43 58.08 166.79 64.09 163.31 60.03 160.95 54.03 164.43"/><polygon class="cls-5" points="140.01 163.31 144.06 160.95 150.07 164.43 146.01 166.79 140.01 163.31"/><polygon class="cls-6" points="134 159.82 138.06 157.47 144.06 160.95 140.01 163.31 134 159.82"/><polygon class="cls-5" points="128 156.34 132.06 153.98 138.06 157.47 134 159.82 128 156.34"/><polygon class="cls-6" points="122 152.86 126.06 150.5 132.06 153.98 128 156.34 122 152.86"/><polygon class="cls-5" points="116 149.37 120.05 147.02 126.06 150.5 122 152.86 116 149.37"/><polygon class="cls-6" points="109.99 145.89 114.05 143.53 120.05 147.02 115.99 149.37 109.99 145.89"/><polygon class="cls-5" points="103.99 142.41 108.05 140.05 114.05 143.53 109.99 145.89 103.99 142.41"/><polygon class="cls-6" points="97.99 138.92 102.04 136.57 108.05 140.05 103.99 142.41 97.99 138.92"/><polygon class="cls-6" points="108.05 188.86 103.99 186.5 97.99 189.99 102.04 192.34 108.05 188.86"/><polygon class="cls-5" points="114.05 185.37 109.99 183.02 103.99 186.5 108.05 188.86 114.05 185.37"/><polygon class="cls-6" points="120.05 181.89 115.99 179.54 109.99 183.02 114.05 185.37 120.05 181.89"/><polygon class="cls-5" points="126.05 178.41 122 176.05 115.99 179.54 120.05 181.89 126.05 178.41"/><polygon class="cls-6" points="132.06 174.92 128 172.57 122 176.05 126.06 178.41 132.06 174.92"/><polygon class="cls-5" points="138.06 171.44 134 169.09 128 172.57 132.06 174.92 138.06 171.44"/><polygon class="cls-6" points="144.06 167.96 140.01 165.6 134 169.09 138.06 171.44 144.06 167.96"/><polygon class="cls-5" points="150.07 164.47 146.01 162.12 140.01 165.6 144.06 167.96 150.07 164.47"/><polygon class="cls-5" points="64.09 165.6 60.03 167.96 54.03 164.47 58.08 162.12 64.09 165.6"/><polygon class="cls-6" points="70.09 169.09 66.03 171.44 60.03 167.96 64.09 165.6 70.09 169.09"/><polygon class="cls-5" points="76.09 172.57 72.03 174.92 66.03 171.44 70.09 169.09 76.09 172.57"/><polygon class="cls-6" points="82.09 176.05 78.04 178.41 72.03 174.92 76.09 172.57 82.09 176.05"/><polygon class="cls-5" points="88.1 179.54 84.04 181.89 78.04 178.41 82.09 176.05 88.1 179.54"/><polygon class="cls-6" points="94.1 183.02 90.04 185.37 84.04 181.89 88.1 179.54 94.1 183.02"/><polygon class="cls-5" points="100.1 186.5 96.05 188.86 90.04 185.37 94.1 183.02 100.1 186.5"/><polygon class="cls-6" points="106.11 189.99 102.05 192.34 96.05 188.86 100.1 186.5 106.11 189.99"/><polygon class="cls-2" points="106.67 58.76 109.61 83.94 86.89 93.06 71.6 72.85 106.67 58.76"/><circle class="cls-7" cx="93.69" cy="77.15" r="8.06"/><ellipse class="cls-8" cx="141.99" cy="18.11" rx="6.44" ry="15.93" transform="translate(3.48 54.24) rotate(-21.89)"/><ellipse class="cls-9" cx="140.97" cy="18.52" rx="4.3" ry="12.26" transform="translate(3.26 53.89) rotate(-21.89)"/><path class="cls-10" d="M135.2,1.21,148.78,35c-13.4,4.16-25.39,3.37-29.82-7.65S122.64,7.48,135.2,1.21Z"/><path class="cls-11" d="M120.26,29.5c-3.94-9.79,4.23-18,16.62-24.12l4.4,11C128.61,21.72,119.19,26.85,120.26,29.5Z"/><polygon class="cls-12" points="64.69 76.05 120.38 53.67 121.38 48.22 57.68 73.81 64.69 76.05"/><path class="cls-2" d="M73,67.65,57.68,73.81l-24.83,1.4a4.33,4.33,0,0,1-4.57-4L27.17,55.47A1.36,1.36,0,0,1,28.79,54l25.21,5,19.94-9.93Z"/><path class="cls-10" d="M95.14,28.8c12.58-5.05,25.61,3.17,29.94,14a3.43,3.43,0,0,1-1.68,4.64L73.22,67.57a3.28,3.28,0,0,1-4.43-2.23C66,53.22,71.2,38.42,95.14,28.8Z"/><path class="cls-2" d="M22.68,121.88A31.84,31.84,0,1,0,40.36,80.47,31.85,31.85,0,0,0,22.68,121.88Zm13-5.21a17.86,17.86,0,1,1,23.23,9.92A17.87,17.87,0,0,1,35.65,116.67Z"/><path class="cls-2" d="M49.25,102.61A8,8,0,1,1,44.82,113,8,8,0,0,1,49.25,102.61Z"/><path class="cls-2" d="M122.34,81.84A31.83,31.83,0,1,0,140,40.43,31.83,31.83,0,0,0,122.34,81.84Zm13-5.21a17.86,17.86,0,1,1,23.24,9.92A17.87,17.87,0,0,1,135.3,76.63Z"/><path class="cls-2" d="M148.9,62.57A8,8,0,1,1,144.47,73,8,8,0,0,1,148.9,62.57Z"/><path class="cls-11" d="M72.84,51c.37-4.12,9-14.77,21.8-19.91,9.79-3.93,16.76-1,20.36,2.85a57.43,57.43,0,0,0-15.85,4.16C88.43,42.39,77.74,47.62,72.84,51Z"/><path class="cls-11" d="M132.15,2.84c1-.56,2-1.11,3-1.63l12.24,30.45-3.43.7Z"/><circle class="cls-12" cx="114.22" cy="86.53" r="4.61"/><rect class="cls-12" x="70.22" y="90.43" width="45.64" height="9.22" transform="translate(214.81 148.54) rotate(158.11)"/><polygon class="cls-7" points="92.32 98.4 115.36 89.14 113.06 87.73 91.51 96.38 92.32 98.4"/><rect class="cls-12" x="61.96" y="94.06" width="27.61" height="15.84" transform="translate(184.08 168.37) rotate(158.11)"/><ellipse class="cls-12" cx="88.57" cy="96.83" rx="7.26" ry="7.92" transform="translate(-29.71 40) rotate(-21.89)"/><path class="cls-7" d="M65.07,112.4,90.2,102.31a.82.82,0,0,0,.51-.74L90.79,99a.82.82,0,0,0-1.12-.79L63.58,108.69Z"/><polygon class="cls-12" points="118.8 86.01 109.64 87.05 106.45 59.13 115.33 55.56 118.8 86.01"/><polygon class="cls-7" points="120.86 51.13 120.4 53.66 64.65 76.06 61.4 75.02 120.86 51.13"/><path class="cls-12" d="M98.43,14h0l-.15-.16a6,6,0,0,1,9.32-7.61l.13.18h0l48.78,59.79h0a6,6,0,1,1-9.32,7.6h0Z"/><path class="cls-7" d="M99.1,12.72a2.86,2.86,0,1,1,4.43-3.62h0l50.05,61.34h0a2.86,2.86,0,0,1-4.43,3.62h0L99.1,12.72Z"/><path class="cls-7" d="M123.23,42.21h0l11.07-3.28,4.3,5.27a3.2,3.2,0,0,1-.43.17h0l-12,3.57L122,42.85a3.32,3.32,0,0,1,1.14-.62Z"/><path class="cls-7" d="M129,49.31h0L140.1,46l4.3,5.27a3.2,3.2,0,0,1-.43.17h0l-12,3.57L127.78,50a3.16,3.16,0,0,1,1.14-.62Z"/><path class="cls-7" d="M134.83,56.42h0l11.07-3.29,4.3,5.27a3.25,3.25,0,0,1-.43.18h0l-12,3.57-4.15-5.08a3.16,3.16,0,0,1,1.14-.62Z"/><path class="cls-12" d="M122.42,45.88h0l-.11,0a3.16,3.16,0,0,1-1.79-6.06.35.35,0,0,1,.11,0h0l13.14-3.89h0a3.16,3.16,0,0,1,1.8,6.06h0Z"/><path class="cls-7" d="M121.93,45.3a1.5,1.5,0,0,1-.85-2.88h0l14.15-4.2h0a1.51,1.51,0,0,1,.86,2.89h0L121.93,45.3Z"/><path class="cls-12" d="M128.21,53h0l-.11,0A3.16,3.16,0,0,1,126.31,47l.11,0h0L139.56,43h0a3.16,3.16,0,0,1,1.8,6.06h0Z"/><path class="cls-7" d="M127.73,52.41a1.5,1.5,0,0,1-.85-2.88h0L141,45.33h0a1.5,1.5,0,1,1,.86,2.88h0l-14.16,4.2Z"/><path class="cls-12" d="M134,60.1h0l-.11,0a3.16,3.16,0,1,1-1.79-6.06l.11,0h0l13.14-3.9h0a3.16,3.16,0,1,1,1.8,6.06h0Z"/><path class="cls-7" d="M133.53,59.52a1.5,1.5,0,1,1-.85-2.88h0l14.15-4.2h0a1.5,1.5,0,0,1,.86,2.88h0l-14.16,4.2Z"/><ellipse class="cls-2" cx="98.38" cy="9.61" rx="6.55" ry="10.28" transform="translate(6.7 46.55) rotate(-27.52)"/><rect class="cls-2" x="79.71" y="6.11" width="19.79" height="16.14" transform="translate(175.61 -14.65) rotate(152.48)"/><ellipse class="cls-2" cx="98.38" cy="9.61" rx="5.15" ry="8.07" transform="translate(6.7 46.55) rotate(-27.52)"/><ellipse class="cls-2" cx="80.83" cy="18.75" rx="5.15" ry="8.07" transform="translate(0.48 39.47) rotate(-27.52)"/></g></g></svg>