<svg xmlns="http://www.w3.org/2000/svg" viewBox="0 0 199.67 97.34"><defs><style>.cls-1{fill:#1e1b1c;}</style></defs><title>labo-logo</title><g id="Слой_2" data-name="Слой 2"><g id="Layer_1" data-name="Layer 1"><path class="cls-1" d="M167.22,74.46l5-5v-20l-5-5h-20l-5,5v20l5,5Zm-15.81-20.8h11.65V65.31H151.41Zm22.19,20.8V72.79h.83v-.55h-2.22v.55h.84v1.67ZM199.67,79V0H0V97.34H199.67V88.19H9.15v-79H190.52V79Zm-22.24-4.57V72.24h-.92l-.36,1.41-.36-1.41h-.91v2.22h.54V72.74l.44,1.72h.59l.43-1.72v1.72Zm-24.8-41V27.31l-4.43-4.43H137.66v15H148.2Zm-11,.55V26.76h4.88L148.75,29v2.77L146.53,34Zm30.56,1.39v-10l-2.49-2.49h-10l-2.49,2.49v10l2.49,2.49h10ZM168.33,34h-7.21V26.76h7.21ZM27.45,74.46h30V65.31H36.61V44.51H27.45ZM38,37.85h4.44v-15H38.55v9.43l-6.66-9.43H27.45v15h3.89V28.42Zm10.12-15v15h4.22v-15Zm39.11,15v-11h5.43v-4h-15v4h5.43v11Zm8.45,36.61v-25l-5-5h-20l-5,5v25h9.16V68.91H86.52v5.55ZM86.52,60H74.88V53.38H86.52Zm25.79-33.56v-3.6h-15v15h15v-3.6H101.22V32.17h9.7V28.56h-9.7V26.48ZM128,37.85h4.43v-15h-3.88v9.43l-6.65-9.43H117.5v15h3.88V28.42Zm5.9,11.65-5-5H104V74.46h25l5-5v-7l-3-3,3-3Zm-9.29,18.3H113V62.48h11.64Zm0-11.31H113V51.16h11.64ZM73,37.85v-15H69.11v9.43l-6.66-9.43H58v15H61.9V28.42l6.65,9.43Z"/></g></g></svg>