<svg xmlns="http://www.w3.org/2000/svg" viewBox="0 0 49.76 7.17"><defs><style>.cls-1{fill:#e15200;}</style></defs><title>nick-logo</title><g id="Слой_2" data-name="Слой 2"><g id="Isolation_Mode" data-name="Isolation Mode"><path class="cls-1" d="M2.41,2.34A2.41,2.41,0,0,0,0,4.75V7H1.83V4.79A1.35,1.35,0,0,1,2,4.12a.5.5,0,0,1,.41-.27.49.49,0,0,1,.41.27A1.26,1.26,0,0,1,3,4.79V7H4.83V4.75A2.46,2.46,0,0,0,4.12,3a2.44,2.44,0,0,0-1.71-.7"/><path class="cls-1" d="M46.28,2.34a2.42,2.42,0,0,0-1.71.7,2.46,2.46,0,0,0-.71,1.71V7H45.7V4.79a1.26,1.26,0,0,1,.17-.67.48.48,0,0,1,.41-.27.5.5,0,0,1,.41.27,1.35,1.35,0,0,1,.17.67V7h1.83V4.75a2.41,2.41,0,0,0-2.41-2.41"/><path class="cls-1" d="M16.55,3.69A.91.91,0,1,0,15,2.76l-.83,1.48v-1a.92.92,0,0,0-1.83,0V7h1.83V5.5l1,1.45h2.08L15.86,5Z"/><path class="cls-1" d="M6.8,1.75A1,1,0,0,0,7.09,1a1,1,0,0,0-1-1,1,1,0,0,0-.72.3,1,1,0,0,0-.3.72,1,1,0,0,0,.3.72L5.58,2c.38.38.4.48,0,.83L5.42,3a.9.9,0,0,0-.27.65V7H7V3.66A.9.9,0,0,0,6.73,3l-.2-.21c-.36-.35-.33-.45,0-.83Z"/><path class="cls-1" d="M10.08,5.52a.51.51,0,0,1-.42.32c-.16,0-.3-.12-.41-.32a1.72,1.72,0,0,1-.16-.77A1.71,1.71,0,0,1,9.25,4c.11-.2.25-.32.41-.32a.51.51,0,0,1,.42.32,1.43,1.43,0,0,1,.15.54h1.84A2.42,2.42,0,1,0,8,6.46a2.4,2.4,0,0,0,3.27.13A2.38,2.38,0,0,0,12.07,5H10.23a1.43,1.43,0,0,1-.15.54"/><path class="cls-1" d="M19.13,2.34a2.42,2.42,0,0,0-1.71.7,2.46,2.46,0,0,0-.71,1.71,2.42,2.42,0,0,0,.71,1.7,2.38,2.38,0,0,0,1.72.71,2.43,2.43,0,0,0,1.71-.72,2.18,2.18,0,0,0,.53-1.2H19.74s-.22.57-.61.57a.47.47,0,0,1-.41-.31,1.28,1.28,0,0,1-.15-.5h2.84a2.44,2.44,0,0,0-.58-1.94,2.34,2.34,0,0,0-1.7-.72m-.53,2A1.38,1.38,0,0,1,18.72,4a.51.51,0,0,1,.41-.32c.16,0,.3.12.41.33a1.31,1.31,0,0,1,.12.35Z"/><path class="cls-1" d="M36.26,2.34a2.41,2.41,0,0,0-2.41,2.41,2.42,2.42,0,0,0,2.42,2.41A2.41,2.41,0,0,0,38,6.44a2.09,2.09,0,0,0,.53-1.2H36.88s-.23.57-.62.57a.49.49,0,0,1-.41-.31A1.73,1.73,0,0,1,35.7,5h2.84A2.4,2.4,0,0,0,38,3.06a2.33,2.33,0,0,0-1.7-.72m-.53,2A1.89,1.89,0,0,1,35.85,4a.52.52,0,0,1,.41-.32c.17,0,.3.12.42.33a1.3,1.3,0,0,1,.11.35Z"/><path class="cls-1" d="M22.58,0a.92.92,0,0,0-.92.92V7H23.5v-6A.91.91,0,0,0,22.58,0"/><path class="cls-1" d="M26.16,2.34a2.41,2.41,0,1,0,2.41,2.41,2.41,2.41,0,0,0-2.41-2.41m0,3.5c-.32,0-.58-.49-.58-1.09s.26-1.09.58-1.09.58.49.58,1.09-.26,1.09-.58,1.09"/><path class="cls-1" d="M41.23,2.34a2.41,2.41,0,1,0,2.41,2.41,2.41,2.41,0,0,0-2.41-2.41m0,3.5c-.33,0-.59-.49-.59-1.09s.26-1.09.59-1.09.58.49.58,1.09-.26,1.09-.58,1.09"/><path class="cls-1" d="M33.62,4.75h0V.91a.92.92,0,0,0-1.83,0v1.5a2.79,2.79,0,0,0-.58-.07A2.41,2.41,0,0,0,29.5,6.46h0a2.4,2.4,0,0,0,3.41,0h0a2.4,2.4,0,0,0,.71-1.71h0M31.21,5.84c-.33,0-.59-.49-.59-1.09s.26-1.09.59-1.09.58.49.58,1.09-.26,1.09-.58,1.09"/><path class="cls-1" d="M49.2,6.5h-.15v.42H49V6.5h-.14v0h.35Zm.56.42h0V6.5h0l-.16.42h0l-.16-.42h0v.42h-.05V6.46h.1l.13.34h0l.13-.34h.1Z"/></g></g></svg>