<svg xmlns="http://www.w3.org/2000/svg" viewBox="0 0 299.99 148.28"><defs><style>.cls-1{fill:#251e1c;}</style></defs><title>prize-logo</title><g id="Слой_2" data-name="Слой 2"><g id="FIX"><path class="cls-1" d="M77.09,131.6c-1.12,0-2,1-2,3s.84,3,2,3,2-1,2-3S78.2,131.6,77.09,131.6Zm-49.28,5.53h4.88v-2.4H27.81Zm33-5.1a2.37,2.37,0,0,0-2.15,1v-.82H56v7.93h2.85v-4.25c0-.86.42-1.23,1-1.23s1,.42,1,1.21v4.27h2.85V135A2.76,2.76,0,0,0,60.84,132ZM9.41,129H0v2.8H3.18v8.4h3v-8.4H9.41Zm13.51,6.39-1.5-3.12H18.13l3.27,6.14-2.67,5h3.11l5.69-11.13H24.41ZM50.31,132a4.18,4.18,0,1,0,4.31,4.18A4.13,4.13,0,0,0,50.31,132Zm0,5.71a1.54,1.54,0,1,1,1.4-1.53A1.42,1.42,0,0,1,50.31,137.74Zm-10.15-6.06a2.7,2.7,0,0,1,2.46,1.42l2.7-1.49a5.7,5.7,0,0,0-5.12-2.84,5.81,5.81,0,1,0,0,11.62,5.79,5.79,0,0,0,5-2.58l-2.5-1.74a2.9,2.9,0,0,1-2.53,1.4,2.9,2.9,0,0,1,0-5.79ZM13.43,132a4.18,4.18,0,1,0,0,8.36,4.18,4.18,0,1,0,0-8.36Zm0,5.71a1.54,1.54,0,1,1,1.4-1.53A1.42,1.42,0,0,1,13.43,137.74Zm162.12,7.43h5.72v-21h-5.72Zm96.11-21h-6.94L259.41,132h-1.65v-7.91H252v21h5.72v-8.06h1.62l5.94,8.06h7L264,134.39Zm-37.91,7.95-4.26-7.95h-6.55l7.94,13.15v7.9h5.71v-8l7.76-13.08H238ZM274,145.17h5.72v-21H274Zm8.27-21v5.26h6v15.79H294V129.38h6v-5.26Zm-78.57,5.26h6v15.79h5.71V129.38h6v-5.26H203.73Zm-76.37-5.26-5,15.08-5-15.08h-6.06l7.66,21h6.74l7.67-21Zm-45.75-3a13.57,13.57,0,1,0,13.56,13.57A13.56,13.56,0,0,0,81.61,121.15Zm-4.52,19.24c-2.81,0-5-2.18-5-5.81s2.22-5.81,5-5.81,5,2.18,5,5.81S79.9,140.39,77.09,140.39Zm12.11-.21h-3v-7.36l-2.36.84v-2.87l5.31-2Zm49.39-16.06-8,21h6l1.38-4h7.86l1.4,4h6.06l-8-21Zm1.16,11.94,2.16-6.23,2.15,6.23Zm32.66-4.94c0-4.24-2.81-7-8.16-7h-9.38v21h5.71V137.7h.32l5.06,7.47h6.74L167,137.44C170.53,136.7,172.41,134.37,172.41,131.12ZM164.19,133h-3.61v-3.75h3.61c1.41,0,2.45.61,2.45,1.88S165.6,133,164.19,133Zm20.68,12.18h16.45v-5.08H190.59v-3h10V132h-10V129.2h10.73v-5.08H184.87Z"/><path class="cls-1" d="M209,37.34V30.52l-5-4.95H192.26V42.3H204ZM196.72,38V29.9h5.46l2.48,2.48v3.1L202.18,38Zm64.84,50.36V0H38.43V108.78H261.56V98.55H48.66V10.23H251.33V88.32ZM230.88,39.51V28.35l-2.79-2.78H216.93l-2.79,2.78V39.51l2.79,2.79h11.16ZM226.54,38h-8.06V29.9h8.06ZM236.7,83.21V80.73h-1l-.4,1.57-.4-1.57h-1v2.48h.61V81.29l.49,1.92h.66l.48-1.92v1.92Zm-11.4,0,5.58-5.58V55.32l-5.58-5.58H203l-5.58,5.58V77.63L203,83.21ZM207.63,60h13V73h-13Zm24.79,23.25V81.34h.94v-.61h-2.48v.61h.93v1.87ZM188.11,55.32l-5.58-5.58H154.64V83.21h27.89l5.58-5.58V69.82l-3.35-3.35,3.35-3.34ZM177.73,75.77h-13v-6h13Zm0-12.64h-13v-6h13ZM69.11,83.21h33.47V73H79.34V49.74H69.11ZM80.89,42.3h5V25.57H81.5V36.1L74.07,25.57h-5V42.3h4.34V31.76Zm55,0V30H142V25.57H125.23V30h6.08V42.3ZM92.19,25.57V42.3h4.72V25.57ZM120,42.3V25.57h-4.34V36.1l-7.43-10.53h-5V42.3h4.34V31.76L115,42.3Zm44-12.71v-4H147.2V42.3h16.74v-4h-12.4V36h10.85v-4H151.54V29.59ZM181.51,42.3h5V25.57h-4.34V36.1l-7.44-10.53h-5V42.3h4.34V31.76ZM145.34,83.21V55.32l-5.57-5.58H117.45l-5.57,5.58V83.21H122.1V77h13v6.2ZM122.1,67.09V59.65h13v7.44Z"/></g></g></svg>